<?xml version="1.0" standalone="no"?>
<!DOCTYPE svg PUBLIC "-//W3C//DTD SVG 20010904//EN"
 "http://www.w3.org/TR/2001/REC-SVG-20010904/DTD/svg10.dtd">
<svg version="1.0" xmlns="http://www.w3.org/2000/svg"
 width="842.000000pt" height="842.000000pt" viewBox="0 0 842.000000 842.000000"
 preserveAspectRatio="xMidYMid meet">
<metadata>
Created by potrace 1.11, written by Peter Selinger 2001-2013
</metadata>
<g transform="translate(0.000000,842.000000) scale(0.100000,-0.100000)"
fill="#000000" stroke="none">
<path d="M3188 6395 c-2 -2 -23 -5 -48 -7 -25 -2 -50 -6 -55 -10 -6 -3 -22 -8
-36 -11 -32 -8 -129 -73 -147 -99 -8 -10 -22 -26 -32 -36 -44 -42 -119 -228
-134 -332 -25 -176 -25 -390 -1 -550 3 -19 8 -51 11 -70 3 -19 7 -48 9 -65 2
-16 6 -41 9 -55 30 -129 36 -118 -89 -160 -60 -20 -125 -44 -142 -54 -18 -9
-35 -16 -38 -16 -3 0 -30 -11 -61 -25 -31 -14 -60 -25 -65 -25 -5 0 -9 -4 -9
-10 0 -5 -6 -10 -14 -10 -8 0 -40 -15 -72 -34 -33 -19 -80 -47 -106 -62 -27
-15 -48 -31 -48 -36 0 -4 -5 -8 -11 -8 -14 0 -74 -48 -145 -116 -221 -212
-257 -437 -104 -659 49 -72 212 -225 239 -225 6 0 11 -4 11 -10 0 -5 17 -19
38 -30 20 -11 55 -32 77 -45 106 -66 348 -172 508 -222 l58 -18 -6 -45 c-3
-25 -10 -61 -15 -80 -5 -19 -12 -57 -16 -85 -3 -27 -8 -58 -10 -69 -18 -97
-25 -446 -10 -546 21 -139 71 -277 129 -355 54 -72 128 -132 187 -150 3 -1 12
-5 20 -8 48 -22 197 -29 265 -13 17 3 40 9 53 11 12 3 30 7 40 9 39 9 182 70
251 107 89 48 245 148 249 160 2 5 8 9 14 9 5 0 15 6 22 12 7 7 31 27 52 43
21 17 73 60 116 98 42 37 83 67 90 67 7 0 39 -25 72 -55 32 -31 104 -89 160
-131 55 -42 109 -82 119 -90 9 -8 19 -14 21 -14 3 0 40 -22 83 -48 126 -78
290 -148 388 -166 17 -3 41 -8 55 -11 14 -3 59 -5 100 -6 252 -1 417 171 476
496 19 104 25 383 10 475 -4 25 -9 72 -12 104 -2 32 -7 62 -9 67 -3 4 -8 27
-11 51 -4 24 -12 70 -18 103 l-13 59 81 27 c101 33 216 79 315 125 87 41 234
124 239 136 2 4 8 8 14 8 23 0 197 151 248 216 134 169 160 343 75 507 -47 91
-117 171 -232 268 -89 74 -325 205 -470 260 -13 5 -33 14 -45 19 -13 6 -68 26
-123 44 -108 37 -113 43 -94 110 5 16 11 48 14 70 3 23 9 50 12 60 3 11 7 33
8 50 2 17 7 65 12 106 10 93 11 378 1 445 -7 46 -10 63 -22 121 -23 114 -89
242 -163 313 -92 88 -193 123 -340 116 -92 -4 -110 -7 -211 -41 -72 -24 -241
-101 -252 -115 -3 -3 -29 -18 -57 -34 -29 -15 -53 -32 -53 -37 0 -4 -5 -8 -11
-8 -22 0 -346 -256 -357 -282 -8 -17 -29 -5 -80 42 -53 48 -237 193 -277 217
-11 7 -59 37 -107 68 -133 84 -276 146 -403 174 -50 11 -170 22 -177 16z m92
-229 c109 -15 220 -60 379 -153 73 -43 246 -172 306 -228 22 -20 50 -44 63
-52 28 -19 28 -24 -5 -59 -16 -16 -57 -63 -93 -104 -36 -41 -69 -80 -75 -86
-22 -25 -44 -53 -125 -159 -46 -61 -85 -111 -86 -113 -1 -2 -15 -5 -31 -7 -15
-2 -57 -7 -93 -11 -36 -4 -67 -9 -70 -9 -3 -1 -32 -5 -65 -10 -33 -5 -62 -9
-65 -10 -3 -1 -25 -5 -50 -9 -25 -5 -54 -10 -65 -13 -11 -2 -33 -6 -50 -9 -29
-5 -91 -20 -126 -30 -10 -3 -19 3 -23 12 -13 34 -43 200 -53 294 -10 90 -11
356 -2 410 5 30 11 66 13 80 16 104 81 215 145 250 24 12 108 28 126 24 6 -2
26 -5 45 -8z m2032 -12 c49 -24 112 -103 122 -154 1 -3 4 -9 8 -15 7 -12 26
-101 35 -170 9 -67 9 -292 0 -385 -4 -41 -17 -127 -29 -190 -11 -63 -21 -121
-21 -128 0 -7 -7 -10 -16 -8 -9 3 -33 7 -55 11 -21 3 -43 8 -48 11 -5 3 -24 8
-41 10 -18 3 -66 11 -107 19 -41 8 -93 17 -115 20 -23 3 -50 7 -60 9 -11 2
-48 7 -82 11 -106 12 -115 13 -117 17 -1 2 -18 23 -36 48 -19 25 -38 50 -42
55 -16 21 -143 180 -148 185 -3 3 -36 41 -75 85 -38 43 -78 87 -87 97 -10 10
-18 22 -18 27 0 7 78 76 167 149 302 246 621 369 765 296z m-993 -719 c44 -47
161 -190 161 -196 0 -2 -121 -4 -269 -4 l-269 0 52 65 c28 36 55 70 61 76 5 7
43 48 84 93 l74 81 34 -37 c19 -21 51 -56 72 -78z m161 -430 c179 -9 174 -8
191 -25 22 -22 136 -198 212 -327 77 -130 227 -416 227 -433 0 -18 -161 -334
-220 -430 -5 -8 -32 -53 -61 -100 -73 -120 -159 -250 -167 -251 -57 -11 -512
-28 -512 -19 0 3 -53 5 -118 6 -133 1 -229 5 -254 12 -20 5 -164 223 -276 417
-60 105 -173 327 -178 349 -8 41 210 442 379 696 49 75 68 95 87 96 14 1 95 5
180 9 85 4 156 8 157 9 4 3 231 -2 353 -9z m-1020 -53 c0 -5 -31 -61 -70 -124
-82 -138 -96 -161 -145 -256 -20 -40 -40 -72 -45 -72 -4 0 -20 35 -35 78 -14
42 -31 86 -35 97 -18 43 -60 181 -60 198 0 10 8 18 20 18 11 1 23 2 28 3 4 1
27 6 52 11 57 11 52 10 75 17 11 4 40 9 65 13 25 3 63 10 85 14 55 12 65 12
65 3z m1590 -6 c74 -10 171 -29 265 -53 11 -2 26 -5 33 -5 19 -2 16 -17 -39
-175 -28 -81 -51 -154 -51 -160 -1 -7 -5 -13 -10 -13 -4 0 -8 -9 -8 -20 0 -35
-15 -22 -46 38 -47 91 -115 208 -165 287 -14 22 -36 57 -49 79 l-23 38 29 -6
c16 -3 45 -8 64 -10z m-2170 -233 c19 -60 37 -115 41 -123 4 -8 15 -37 24 -65
10 -27 42 -109 71 -181 l55 -132 -36 -80 c-19 -44 -35 -82 -35 -85 0 -2 -8
-22 -17 -43 -9 -22 -17 -41 -18 -44 -3 -18 -49 -147 -55 -155 -3 -5 -15 -39
-24 -75 -15 -54 -25 -81 -41 -117 -2 -3 -119 37 -195 67 -30 12 -63 24 -72 27
-43 13 -258 129 -327 176 -101 69 -202 170 -235 235 -29 58 -34 121 -12 173
17 40 71 116 100 142 76 67 99 85 172 133 92 61 202 117 324 166 108 44 181
71 198 74 8 2 16 5 20 8 18 18 32 -5 62 -101z m2785 83 c94 -32 204 -75 235
-91 14 -7 59 -30 100 -50 92 -46 251 -151 305 -202 22 -21 55 -57 73 -80 34
-43 73 -138 66 -157 -3 -8 -170 -11 -544 -11 -474 0 -539 2 -536 15 3 15 15
46 40 105 7 16 21 50 31 75 9 25 22 59 29 75 19 45 36 96 111 333 6 16 8 16
90 -12z m-417 -888 c6 -18 35 -105 65 -193 62 -179 63 -168 -22 -181 -20 -3
-39 -8 -42 -10 -5 -3 -46 -11 -99 -19 -14 -2 -38 -7 -55 -10 -16 -3 -46 -7
-65 -11 -19 -3 -43 -7 -52 -10 -14 -4 -16 -1 -11 13 4 10 9 20 12 23 10 8 61
89 61 96 0 3 10 20 22 37 13 18 23 34 23 37 1 6 57 103 65 110 3 3 6 10 7 16
1 7 16 35 33 63 16 29 30 56 30 61 0 22 17 8 28 -22z m-2021 -16 c10 -20 52
-95 93 -166 106 -182 110 -188 131 -214 33 -43 24 -43 -166 -8 -88 16 -206 44
-212 49 -3 4 15 68 40 144 72 215 79 233 88 233 5 0 16 -17 26 -38z m-137
-577 c3 -2 20 -7 36 -9 16 -3 40 -8 54 -11 14 -3 50 -9 80 -15 30 -6 64 -12
75 -14 42 -8 102 -17 140 -21 59 -6 127 -15 151 -20 12 -3 50 -44 89 -96 38
-50 73 -96 79 -102 6 -7 29 -34 51 -62 47 -58 81 -97 152 -174 29 -31 53 -61
53 -66 0 -6 -17 -25 -37 -42 -21 -17 -47 -40 -58 -50 -70 -64 -254 -196 -340
-243 -33 -18 -64 -36 -70 -40 -11 -8 -142 -61 -160 -65 -5 -1 -30 -7 -55 -15
-41 -11 -133 -15 -170 -7 -142 33 -214 214 -214 537 0 142 16 313 39 414 3 12
7 35 10 51 4 17 8 37 10 45 2 8 4 16 4 18 1 4 71 -7 81 -13z m2340 -9 c0 -14
4 -36 10 -50 5 -14 11 -42 14 -63 12 -88 18 -129 23 -153 3 -14 7 -110 8 -215
2 -155 -1 -206 -16 -277 -31 -150 -98 -256 -173 -277 -51 -14 -176 -4 -246 19
-99 33 -234 101 -343 174 -54 36 -103 71 -111 78 -7 7 -25 22 -40 33 -30 21
-87 70 -145 123 -36 32 -36 32 -16 50 44 37 245 277 345 410 46 61 59 72 84
73 17 0 38 2 46 3 8 2 40 6 70 9 30 4 66 9 80 12 23 6 41 9 115 18 17 2 39 7
50 10 11 3 36 8 55 11 19 4 60 12 90 20 85 21 100 20 100 -8z m-958 -132 c-9
-13 -20 -24 -24 -24 -5 0 -8 -4 -8 -10 0 -5 -8 -18 -17 -28 -10 -10 -37 -40
-60 -67 -115 -136 -155 -172 -165 -146 -1 5 -26 34 -53 63 -28 29 -70 78 -95
108 -25 30 -57 69 -72 85 -16 17 -28 32 -28 36 0 3 121 5 269 6 l270 0 -17
-23z"/>
<path d="M4198 4675 c-1 -1 -23 -5 -48 -8 -175 -22 -324 -152 -374 -329 -59
-206 39 -430 229 -524 72 -35 91 -41 160 -50 54 -7 54 -7 105 0 58 8 143 36
152 50 4 6 8 7 8 3 0 -13 72 43 122 96 79 84 121 201 117 325 -2 64 -38 183
-63 211 -9 10 -16 22 -16 28 0 15 -115 120 -152 139 -52 27 -111 45 -163 50
-27 3 -55 7 -62 9 -6 2 -13 2 -15 0z"/>
</g>
</svg>
